<?xml version="1.0" encoding="UTF-8"?>
<svg id="Layer_2" data-name="Layer 2" xmlns="http://www.w3.org/2000/svg" viewBox="0 0 31.5 44.9">
  <style>
    path { fill: #080521; }
    @media (prefers-color-scheme: dark) {
      path { fill: #ffffff; }
    }
  </style>
  <g id="Layer_1-2" data-name="Layer 1">
    <path d="M18.42,14.86c1.39,0,2.81.25,4.24.76,1.43.51,2.83,1.28,4.19,2.33,1.36,1.05,2.48,2.51,3.35,4.4.87,1.88,1.31,4.05,1.31,6.49,0,3.73-.96,6.86-2.88,9.39-1.92,2.53-4.48,4.18-7.69,4.95-3.28.77-6.75.26-10.41-1.52-.7,1.6-1.31,2.69-1.83,3.24l-8.69-3.61c.56-.49,1.11-1.26,1.65-2.3.54-1.05.83-2.25.86-3.61.14-3.1.23-6.01.26-8.71.03-2.7-.03-5.65-.18-8.84-.16-3.19-.29-5.67-.39-7.43-.1-1.76-.31-4.77-.63-9.03L10.99,0c-.13,4.49-.16,9.77-.06,15.87,0,.26,0,.51.01.77,2.76-1.19,5.25-1.78,7.48-1.78ZM19.87,34.38c1.67-.03,3.13-.72,4.37-2.07,1.24-1.34,1.86-2.89,1.86-4.63,0-1.47-.47-2.78-1.41-3.95-.94-1.17-2.16-1.91-3.66-2.22-2.16-.49-4.47-.14-6.91,1.05.1,4.5.21,7.88.31,10.15,2.09,1.15,3.91,1.71,5.44,1.67Z"/>
  </g>
</svg>